999
dxfrw 0.6.3
  0
SECTION
  2
HEADER
  9
$ACADVER
  1
AC1021
  9
$DWGCODEPAGE
  3
ANSI_1250
  9
$INSBASE
 10
0
 20
0
 30
0
  9
$EXTMIN
 10
-3086.051147822449
 20
-4.591862496227529e-05
 30
0
  9
$EXTMAX
 10
900.2888547527073
 20
6337.369942196532
 30
0
  9
$LIMMIN
 10
0
 20
0
  9
$LIMMAX
 10
420
 20
297
  9
$ORTHOMODE
 70
    0
  9
$REGENMODE
 70
    1
  9
$FILLMODE
 70
    1
  9
$QTEXTMODE
 70
    0
  9
$MIRRTEXT
 70
    0
  9
$LTSCALE
 40
1
  9
$ATTMODE
 70
    0
  9
$TEXTSIZE
 40
2.5
  9
$TRACEWID
 40
15.68
  9
$TEXTSTYLE
  7
STANDARD
  9
$CLAYER
  8
sieć
  9
$CELTYPE
  6
BYLAYER
  9
$CECOLOR
 62
  256
  9
$CELTSCALE
 40
1
  9
$DISPSILH
 70
    0
  9
$DIMSCALE
 40
2.5
  9
$DIMASZ
 40
2.5
  9
$DIMEXO
 40
0.625
  9
$DIMDLI
 40
3.75
  9
$DIMRND
 40
0
  9
$DIMDLE
 40
0
  9
$DIMEXE
 40
1.25
  9
$DIMTP
 40
0
  9
$DIMTM
 40
0
  9
$DIMTXT
 40
2.5
  9
$DIMCEN
 40
2.5
  9
$DIMTSZ
 40
0
  9
$DIMTOL
 70
    0
  9
$DIMLIM
 70
    0
  9
$DIMTIH
 70
    0
  9
$DIMTOH
 70
    0
  9
$DIMSE1
 70
    0
  9
$DIMSE2
 70
    0
  9
$DIMTAD
 70
    1
  9
$DIMZIN
 70
    8
  9
$DIMBLK
  1

  9
$DIMASO
 70
    1
  9
$DIMSHO
 70
    1
  9
$DIMPOST
  1

  9
$DIMAPOST
  1

  9
$DIMALT
 70
    0
  9
$DIMALTD
 70
    3
  9
$DIMALTF
 40
0.03937
  9
$DIMLFAC
 40
1
  9
$DIMTOFL
 70
    1
  9
$DIMTVP
 40
0
  9
$DIMTIX
 70
    0
  9
$DIMSOXD
 70
    0
  9
$DIMSAH
 70
    0
  9
$DIMBLK1
  1

  9
$DIMBLK2
  1

  9
$DIMSTYLE
  2
STANDARD
  9
$DIMCLRD
 70
    0
  9
$DIMCLRE
 70
    0
  9
$DIMCLRT
 70
    0
  9
$DIMTFAC
 40
1
  9
$DIMGAP
 40
0.625
  9
$DIMJUST
 70
    0
  9
$DIMSD1
 70
    0
  9
$DIMSD2
 70
    0
  9
$DIMTOLJ
 70
    0
  9
$DIMTZIN
 70
    8
  9
$DIMALTZ
 70
    0
  9
$DIMALTTZ
 70
    0
  9
$DIMUPT
 70
    0
  9
$DIMDEC
 70
    2
  9
$DIMTDEC
 70
    2
  9
$DIMALTU
 70
    2
  9
$DIMALTTD
 70
    3
  9
$DIMTXSTY
  7
STANDARD
  9
$DIMAUNIT
 70
    0
  9
$DIMADEC
 70
    0
  9
$DIMALTRND
 40
0
  9
$DIMAZIN
 70
    0
  9
$DIMDSEP
 70
   44
  9
$DIMATFIT
 70
    3
  9
$DIMFRAC
 70
    0
  9
$DIMLDRBLK
  1
STANDARD
  9
$DIMLUNIT
 70
    2
  9
$DIMLWD
 70
   -2
  9
$DIMLWE
 70
   -2
  9
$DIMTMOVE
 70
    0
  9
$DIMFXL
 40
1
  9
$DIMFXLON
 70
    0
  9
$DIMJOGANG
 40
0.7854
  9
$DIMTFILL
 70
    0
  9
$DIMTFILLCLR
 70
    0
  9
$DIMARCSYM
 70
    0
  9
$DIMLTYPE
  6

  9
$DIMLTEX1
  6

  9
$DIMLTEX2
  6

  9
$LUNITS
 70
    2
  9
$LUPREC
 70
    4
  9
$SKETCHINC
 40
1
  9
$FILLETRAD
 40
0
  9
$AUNITS
 70
    0
  9
$AUPREC
 70
    2
  9
$MENU
  1
.
  9
$ELEVATION
 40
0
  9
$PELEVATION
 40
0
  9
$THICKNESS
 40
0
  9
$LIMCHECK
 70
    0
  9
$CHAMFERA
 40
0
  9
$CHAMFERB
 40
0
  9
$CHAMFERC
 40
0
  9
$CHAMFERD
 40
0
  9
$SKPOLY
 70
    0
  9
$USRTIMER
 70
    1
  9
$ANGBASE
 50
0
  9
$ANGDIR
 70
    0
  9
$PDMODE
 70
   34
  9
$PDSIZE
 40
0
  9
$PLINEWID
 40
0
  9
$SPLFRAME
 70
    0
  9
$SPLINETYPE
 70
    2
  9
$SPLINESEGS
 70
    8
  9
$HANDSEED
  5
20000
  9
$SURFTAB1
 70
    6
  9
$SURFTAB2
 70
    6
  9
$SURFTYPE
 70
    6
  9
$SURFU
 70
    6
  9
$SURFV
 70
    6
  9
$UCSBASE
  2

  9
$UCSNAME
  2

  9
$UCSORG
 10
0
 20
0
 30
0
  9
$UCSXDIR
 10
1
 20
0
 30
0
  9
$UCSYDIR
 10
0
 20
1
 30
0
  9
$UCSORTHOREF
  2

  9
$UCSORTHOVIEW
 70
    0
  9
$UCSORGTOP
 10
0
 20
0
 30
0
  9
$UCSORGBOTTOM
 10
0
 20
0
 30
0
  9
$UCSORGLEFT
 10
0
 20
0
 30
0
  9
$UCSORGRIGHT
 10
0
 20
0
 30
0
  9
$UCSORGFRONT
 10
0
 20
0
 30
0
  9
$UCSORGBACK
 10
0
 20
0
 30
0
  9
$PUCSBASE
  2

  9
$PUCSNAME
  2

  9
$PUCSORG
 10
0
 20
0
 30
0
  9
$PUCSXDIR
 10
1
 20
0
 30
0
  9
$PUCSYDIR
 10
0
 20
1
 30
0
  9
$PUCSORTHOREF
  2

  9
$PUCSORTHOVIEW
 70
    0
  9
$PUCSORGTOP
 10
0
 20
0
 30
0
  9
$PUCSORGBOTTOM
 10
0
 20
0
 30
0
  9
$PUCSORGLEFT
 10
0
 20
0
 30
0
  9
$PUCSORGRIGHT
 10
0
 20
0
 30
0
  9
$PUCSORGFRONT
 10
0
 20
0
 30
0
  9
$PUCSORGBACK
 10
0
 20
0
 30
0
  9
$USERI1
 70
    0
  9
$USERI2
 70
    0
  9
$USERI3
 70
    0
  9
$USERI4
 70
    0
  9
$USERI5
 70
    0
  9
$USERR1
 40
0
  9
$USERR2
 40
0
  9
$USERR3
 40
0
  9
$USERR4
 40
0
  9
$USERR5
 40
0
  9
$WORLDVIEW
 70
    1
  9
$SHADEDGE
 70
    3
  9
$SHADEDIF
 70
   70
  9
$TILEMODE
 70
    1
  9
$MAXACTVP
 70
   64
  9
$PINSBASE
 10
0
 20
0
 30
0
  9
$PLIMCHECK
 70
    0
  9
$PEXTMIN
 10
0
 20
0
 30
0
  9
$PEXTMAX
 10
0
 20
0
 30
0
  9
$GRIDMODE
 70
    1
  9
$SNAPSTYLE
 70
    0
  9
$PLIMMIN
 10
0
 20
0
  9
$PLIMMAX
 10
210
 20
297
  9
$UNITMODE
 70
    0
  9
$VISRETAIN
 70
    1
  9
$PLINEGEN
 70
    0
  9
$PSLTSCALE
 70
    1
  9
$TREEDEPTH
 70
 3020
  9
$CMLSTYLE
  2
Standard
  9
$CMLJUST
 70
    0
  9
$CMLSCALE
 40
20
  9
$PROXYGRAPHICS
 70
    1
  9
$MEASUREMENT
 70
    1
  9
$CELWEIGHT
370
   -1
  9
$ENDCAPS
280
    0
  9
$JOINSTYLE
280
    0
  9
$LWDISPLAY
290
    0
  9
$INSUNITS
 70
    0
  9
$HYPERLINKBASE
  1

  9
$STYLESHEET
  1

  9
$XEDIT
290
    1
  9
$CEPSNTYPE
380
    0
  9
$PSTYLEMODE
290
    1
  9
$EXTNAMES
290
    1
  9
$PSVPSCALE
 40
1
  9
$OLESTARTUP
290
    0
  9
$SORTENTS
280
  127
  9
$INDEXCTL
280
    0
  9
$HIDETEXT
280
    1
  9
$XCLIPFRAME
290
    0
  9
$HALOGAP
280
    0
  9
$OBSCOLOR
 70
  257
  9
$OBSLTYPE
280
    0
  9
$INTERSECTIONDISPLAY
280
    0
  9
$INTERSECTIONCOLOR
 70
  257
  9
$DIMASSOC
280
    1
  9
$PROJECTNAME
  1

  9
$CAMERADISPLAY
290
    0
  9
$LENSLENGTH
 40
50
  9
$CAMERAHEIGHT
 40
0
  9
$STEPSPERSEC
 40
2
  9
$STEPSIZE
 40
50
  9
$3DDWFPREC
 40
2
  9
$PSOLWIDTH
 40
5
  9
$PSOLHEIGHT
 40
80
  9
$LOFTANG1
 40
1.570796326794897
  9
$LOFTANG2
 40
1.570796326794897
  9
$LOFTMAG1
 40
0
  9
$LOFTMAG2
 40
0
  9
$LOFTPARAM
 70
    7
  9
$LOFTNORMALS
280
    1
  9
$LATITUDE
 40
1
  9
$LONGITUDE
 40
1
  9
$NORTHDIRECTION
 40
0
  9
$TIMEZONE
 70
-8000
  9
$LIGHTGLYPHDISPLAY
280
    1
  9
$TILEMODELIGHTSYNCH
280
    1
  9
$SOLIDHIST
280
    1
  9
$SHOWHIST
280
    1
  9
$DWFFRAME
280
    2
  9
$DGNFRAME
280
    0
  9
$REALWORLDSCALE
290
    1
  9
$INTERFERECOLOR
 62
    1
  9
$CSHADOW
280
    0
  9
$SHADOWPLANELOCATION
 40
0
  0
ENDSEC
  0
SECTION
  2
CLASSES
  0
ENDSEC
  0
SECTION
  2
TABLES
  0
TABLE
  2
VPORT
  5
8
330
0
100
AcDbSymbolTable
 70
    1
  0
VPORT
  5
31
330
2
100
AcDbSymbolTableRecord
100
AcDbViewportTableRecord
  2
*ACTIVE
 70
    0
 10
0
 20
0
 11
1
 21
1
 12
750.199965177134
 22
363.0185414315733
 13
0
 23
0
 14
10
 24
10
 15
10
 25
10
 16
0
 26
0
 36
1
 17
0
 27
0
 37
0
 40
942.3524102455104
 41
1.936507936507937
 42
50
 43
0
 44
0
 50
0
 51
0
 71
    0
 72
  100
 73
    1
 74
    3
 75
    0
 76
    1
 77
    0
 78
    0
281
    0
 65
    1
110
0
120
0
130
0
111
1
121
0
131
0
112
0
122
1
132
0
 79
    0
146
0
348
10020
 60
    7
 61
    5
292
1
282
    1
141
0
142
0
 63
  250
421
3358443
  0
ENDTAB
  0
TABLE
  2
LTYPE
  5
5
330
0
100
AcDbSymbolTable
 70
    4
  0
LTYPE
  5
14
330
5
100
AcDbSymbolTableRecord
100
AcDbLinetypeTableRecord
  2
ByBlock
 70
    0
  3

 72
   65
 73
    0
 40
0
  0
LTYPE
  5
15
330
5
100
AcDbSymbolTableRecord
100
AcDbLinetypeTableRecord
  2
ByLayer
 70
    0
  3

 72
   65
 73
    0
 40
0
  0
LTYPE
  5
16
330
5
100
AcDbSymbolTableRecord
100
AcDbLinetypeTableRecord
  2
Continuous
 70
    0
  3
Solid line
 72
   65
 73
    0
 40
0
  0
LTYPE
  5
32
330
5
100
AcDbSymbolTableRecord
100
AcDbLinetypeTableRecord
  2
DOT
 70
    0
  3
Dot . . . . . . . . . . . . . . . . . . . . . .
 72
   65
 73
    2
 40
6.35
 49
0
 74
    0
 49
-6.35
 74
    0
  0
LTYPE
  5
33
330
5
100
AcDbSymbolTableRecord
100
AcDbLinetypeTableRecord
  2
DOTTINY
 70
    0
  3
Dot (.15x) .....................................
 72
   65
 73
    2
 40
0.9525
 49
0
 74
    0
 49
-0.9525
 74
    0
  0
LTYPE
  5
34
330
5
100
AcDbSymbolTableRecord
100
AcDbLinetypeTableRecord
  2
DOT2
 70
    0
  3
Dot (.5x) .....................................
 72
   65
 73
    2
 40
3.175
 49
0
 74
    0
 49
-3.175
 74
    0
  0
LTYPE
  5
35
330
5
100
AcDbSymbolTableRecord
100
AcDbLinetypeTableRecord
  2
DOTX2
 70
    0
  3
Dot (2x) .  .  .  .  .  .  .  .  .  .  .  .  .
 72
   65
 73
    2
 40
12.7
 49
0
 74
    0
 49
-12.7
 74
    0
  0
LTYPE
  5
36
330
5
100
AcDbSymbolTableRecord
100
AcDbLinetypeTableRecord
  2
DASHED
 70
    0
  3
Dashed _ _ _ _ _ _ _ _ _ _ _ _ _ _ _ _ _
 72
   65
 73
    2
 40
19.05
 49
12.7
 74
    0
 49
-6.35
 74
    0
  0
LTYPE
  5
37
330
5
100
AcDbSymbolTableRecord
100
AcDbLinetypeTableRecord
  2
DASHEDTINY
 70
    0
  3
Dashed (.15x) _ _ _ _ _ _ _ _ _ _ _ _ _ _ _ _ _
 72
   65
 73
    2
 40
2.8575
 49
1.905
 74
    0
 49
-0.9525
 74
    0
  0
LTYPE
  5
38
330
5
100
AcDbSymbolTableRecord
100
AcDbLinetypeTableRecord
  2
DASHED2
 70
    0
  3
Dashed (.5x) _ _ _ _ _ _ _ _ _ _ _ _ _ _ _ _ _
 72
   65
 73
    2
 40
9.524999999999999
 49
6.35
 74
    0
 49
-3.175
 74
    0
  0
LTYPE
  5
39
330
5
100
AcDbSymbolTableRecord
100
AcDbLinetypeTableRecord
  2
DASHEDX2
 70
    0
  3
Dashed (2x) ____  ____  ____  ____  ____  ___
 72
   65
 73
    2
 40
38.09999999999999
 49
25.4
 74
    0
 49
-12.7
 74
    0
  0
LTYPE
  5
3A
330
5
100
AcDbSymbolTableRecord
100
AcDbLinetypeTableRecord
  2
DASHDOT
 70
    0
  3
Dash dot __ . __ . __ . __ . __ . __ . __ . __
 72
   65
 73
    4
 40
25.4
 49
12.7
 74
    0
 49
-6.35
 74
    0
 49
0
 74
    0
 49
-6.35
 74
    0
  0
LTYPE
  5
3B
330
5
100
AcDbSymbolTableRecord
100
AcDbLinetypeTableRecord
  2
DASHDOTTINY
 70
    0
  3
Dash dot (.15x) _._._._._._._._._._._._._._._.
 72
   65
 73
    4
 40
3.81
 49
1.905
 74
    0
 49
-0.9525
 74
    0
 49
0
 74
    0
 49
-0.9525
 74
    0
  0
LTYPE
  5
3C
330
5
100
AcDbSymbolTableRecord
100
AcDbLinetypeTableRecord
  2
DASHDOT2
 70
    0
  3
Dash dot (.5x) _._._._._._._._._._._._._._._.
 72
   65
 73
    4
 40
12.7
 49
6.35
 74
    0
 49
-3.175
 74
    0
 49
0
 74
    0
 49
-3.175
 74
    0
  0
LTYPE
  5
3D
330
5
100
AcDbSymbolTableRecord
100
AcDbLinetypeTableRecord
  2
DASHDOTX2
 70
    0
  3
Dash dot (2x) ____  .  ____  .  ____  .  ___
 72
   65
 73
    4
 40
50.8
 49
25.4
 74
    0
 49
-12.7
 74
    0
 49
0
 74
    0
 49
-12.7
 74
    0
  0
LTYPE
  5
3E
330
5
100
AcDbSymbolTableRecord
100
AcDbLinetypeTableRecord
  2
DIVIDE
 70
    0
  3
Divide ____ . . ____ . . ____ . . ____ . . ____
 72
   65
 73
    6
 40
31.75
 49
12.7
 74
    0
 49
-6.35
 74
    0
 49
0
 74
    0
 49
-6.35
 74
    0
 49
0
 74
    0
 49
-6.35
 74
    0
  0
LTYPE
  5
3F
330
5
100
AcDbSymbolTableRecord
100
AcDbLinetypeTableRecord
  2
DIVIDETINY
 70
    0
  3
Divide (.15x) __..__..__..__..__..__..__..__.._
 72
   65
 73
    6
 40
4.7625
 49
1.905
 74
    0
 49
-0.9525
 74
    0
 49
0
 74
    0
 49
-0.9525
 74
    0
 49
0
 74
    0
 49
-0.9525
 74
    0
  0
LTYPE
  5
40
330
5
100
AcDbSymbolTableRecord
100
AcDbLinetypeTableRecord
  2
DIVIDE2
 70
    0
  3
Divide (.5x) __..__..__..__..__..__..__..__.._
 72
   65
 73
    6
 40
15.875
 49
6.35
 74
    0
 49
-3.175
 74
    0
 49
0
 74
    0
 49
-3.175
 74
    0
 49
0
 74
    0
 49
-3.175
 74
    0
  0
LTYPE
  5
41
330
5
100
AcDbSymbolTableRecord
100
AcDbLinetypeTableRecord
  2
DIVIDEX2
 70
    0
  3
Divide (2x) ________  .  .  ________  .  .  _
 72
   65
 73
    6
 40
63.5
 49
25.4
 74
    0
 49
-12.7
 74
    0
 49
0
 74
    0
 49
-12.7
 74
    0
 49
0
 74
    0
 49
-12.7
 74
    0
  0
LTYPE
  5
42
330
5
100
AcDbSymbolTableRecord
100
AcDbLinetypeTableRecord
  2
BORDER
 70
    0
  3
Border __ __ . __ __ . __ __ . __ __ . __ __ .
 72
   65
 73
    6
 40
44.45
 49
12.7
 74
    0
 49
-6.35
 74
    0
 49
12.7
 74
    0
 49
-6.35
 74
    0
 49
0
 74
    0
 49
-6.35
 74
    0
  0
LTYPE
  5
43
330
5
100
AcDbSymbolTableRecord
100
AcDbLinetypeTableRecord
  2
BORDERTINY
 70
    0
  3
Border (.15x) __.__.__.__.__.__.__.__.__.__.__.
 72
   65
 73
    6
 40
6.6675
 49
1.905
 74
    0
 49
-0.9525
 74
    0
 49
1.905
 74
    0
 49
-0.9525
 74
    0
 49
0
 74
    0
 49
-0.9525
 74
    0
  0
LTYPE
  5
44
330
5
100
AcDbSymbolTableRecord
100
AcDbLinetypeTableRecord
  2
BORDER2
 70
    0
  3
Border (.5x) __.__.__.__.__.__.__.__.__.__.__.
 72
   65
 73
    6
 40
22.225
 49
6.35
 74
    0
 49
-3.175
 74
    0
 49
6.35
 74
    0
 49
-3.175
 74
    0
 49
0
 74
    0
 49
-3.175
 74
    0
  0
LTYPE
  5
45
330
5
100
AcDbSymbolTableRecord
100
AcDbLinetypeTableRecord
  2
BORDERX2
 70
    0
  3
Border (2x) ____  ____  .  ____  ____  .  ___
 72
   65
 73
    6
 40
88.89999999999999
 49
25.4
 74
    0
 49
-12.7
 74
    0
 49
25.4
 74
    0
 49
-12.7
 74
    0
 49
0
 74
    0
 49
-12.7
 74
    0
  0
LTYPE
  5
46
330
5
100
AcDbSymbolTableRecord
100
AcDbLinetypeTableRecord
  2
CENTER
 70
    0
  3
Center ____ _ ____ _ ____ _ ____ _ ____ _ ____
 72
   65
 73
    4
 40
50.8
 49
31.75
 74
    0
 49
-6.35
 74
    0
 49
6.35
 74
    0
 49
-6.35
 74
    0
  0
LTYPE
  5
47
330
5
100
AcDbSymbolTableRecord
100
AcDbLinetypeTableRecord
  2
CENTERTINY
 70
    0
  3
Center (.15x) ___ _ ___ _ ___ _ ___ _ ___ _ ___
 72
   65
 73
    4
 40
7.62
 49
4.7625
 74
    0
 49
-0.9525
 74
    0
 49
0.9525
 74
    0
 49
-0.9525
 74
    0
  0
LTYPE
  5
48
330
5
100
AcDbSymbolTableRecord
100
AcDbLinetypeTableRecord
  2
CENTER2
 70
    0
  3
Center (.5x) ___ _ ___ _ ___ _ ___ _ ___ _ ___
 72
   65
 73
    4
 40
28.575
 49
19.05
 74
    0
 49
-3.175
 74
    0
 49
3.175
 74
    0
 49
-3.175
 74
    0
  0
LTYPE
  5
49
330
5
100
AcDbSymbolTableRecord
100
AcDbLinetypeTableRecord
  2
CENTERX2
 70
    0
  3
Center (2x) ________  __  ________  __  _____
 72
   65
 73
    4
 40
101.6
 49
63.5
 74
    0
 49
-12.7
 74
    0
 49
12.7
 74
    0
 49
-12.7
 74
    0
  0
ENDTAB
  0
TABLE
  2
LAYER
  5
2
330
0
100
AcDbSymbolTable
 70
    1
  0
LAYER
  5
10
330
2
100
AcDbSymbolTableRecord
100
AcDbLayerTableRecord
  2
0
 70
    4
 62
    7
  6
CONTINUOUS
370
    0
390
F
  0
LAYER
  5
4A
330
2
100
AcDbSymbolTableRecord
100
AcDbLayerTableRecord
  2
elektryka
 70
    4
 62
    7
  6
CONTINUOUS
370
    0
390
F
  0
LAYER
  5
4B
330
2
100
AcDbSymbolTableRecord
100
AcDbLayerTableRecord
  2
sieć
 70
    4
 62
    7
  6
CONTINUOUS
370
    0
390
F
  0
ENDTAB
  0
TABLE
  2
STYLE
  5
3
330
0
100
AcDbSymbolTable
 70
    3
  0
STYLE
  5
4C
330
2
100
AcDbSymbolTableRecord
100
AcDbTextStyleTableRecord
  2
Standard
 70
    0
 40
0
 41
1
 50
0
 71
    0
 42
1
  3
txt
  4

  0
ENDTAB
  0
TABLE
  2
VIEW
  5
6
330
0
100
AcDbSymbolTable
 70
    0
  0
ENDTAB
  0
TABLE
  2
UCS
  5
7
330
0
100
AcDbSymbolTable
 70
    0
  0
ENDTAB
  0
TABLE
  2
APPID
  5
9
330
0
100
AcDbSymbolTable
 70
    1
  0
APPID
  5
12
330
9
100
AcDbSymbolTableRecord
100
AcDbRegAppTableRecord
  2
ACAD
 70
    0
  0
APPID
  5
4D
330
9
100
AcDbSymbolTableRecord
100
AcDbRegAppTableRecord
  2
LibreCad
 70
    0
  0
ENDTAB
  0
TABLE
  2
DIMSTYLE
  5
A
330
0
100
AcDbSymbolTable
 70
    1
100
AcDbDimStyleTable
 71
    1
  0
DIMSTYLE
105
4E
330
A
100
AcDbSymbolTableRecord
100
AcDbDimStyleTableRecord
  2
Standard
 70
    0
 40
2.5
 41
2.5
 42
0.625
 43
0.38
 44
1.25
 45
0
 46
0
 47
0
 48
0
 49
1
140
2.5
141
0.09
142
0
143
25.4
144
1
145
0
146
1
147
0.625
148
0
 71
    0
 72
    0
 73
    0
 74
    1
 75
    0
 76
    0
 77
    0
 78
    8
 79
    0
170
    0
171
    2
172
    0
173
    0
174
    0
175
    0
176
    0
177
    0
178
    0
179
    0
271
    2
272
    4
273
    2
274
    2
275
    0
276
    0
277
    2
278
   44
279
    0
280
    0
281
    0
282
    0
283
    1
284
    0
285
    0
286
    0
288
    0
289
    3
340
STANDARD
341

371
   -2
372
   -2
  0
ENDTAB
  0
TABLE
  2
BLOCK_RECORD
  5
1
330
0
100
AcDbSymbolTable
 70
    2
  0
BLOCK_RECORD
  5
1F
330
1
100
AcDbSymbolTableRecord
100
AcDbBlockTableRecord
  2
*Model_Space
 70
    0
280
    1
281
    0
  0
BLOCK_RECORD
  5
1E
330
1
100
AcDbSymbolTableRecord
100
AcDbBlockTableRecord
  2
*Paper_Space
 70
    0
280
    1
281
    0
  0
ENDTAB
  0
ENDSEC
  0
SECTION
  2
BLOCKS
  0
BLOCK
  5
20
330
1F
100
AcDbEntity
  8
0
100
AcDbBlockBegin
  2
*Model_Space
 70
    0
 10
0
 20
0
 30
0
  3
*Model_Space
  1

  0
ENDBLK
  5
21
330
1F
100
AcDbEntity
  8
0
100
AcDbBlockEnd
  0
BLOCK
  5
1C
330
1B
100
AcDbEntity
  8
0
100
AcDbBlockBegin
  2
*Paper_Space
 70
    0
 10
0
 20
0
 30
0
  3
*Paper_Space
  1

  0
ENDBLK
  5
1D
330
1F
100
AcDbEntity
  8
0
100
AcDbBlockEnd
  0
ENDSEC
  0
SECTION
  2
ENTITIES
  0
LINE
  5
4F
100
AcDbEntity
  8
0
  6
ByLayer
 62
  256
370
  100
100
AcDbLine
 10
0
 20
-4.591862496227529e-05
 11
900
 21
-4.591862496227529e-05
  0
LINE
  5
50
100
AcDbEntity
  8
0
  6
ByLayer
 62
  256
370
  100
100
AcDbLine
 10
899.9673708822403
 20
0.06745749992558719
 11
899.9673708822403
 21
600.0674574999256
  0
LINE
  5
51
100
AcDbEntity
  8
0
  6
ByLayer
 62
  256
370
  100
100
AcDbLine
 10
0.004670523949036273
 20
0.009341047898072547
 11
0.004670523949066889
 21
500.0093410478981
  0
LINE
  5
52
100
AcDbEntity
  8
0
  6
ByLayer
 62
  256
370
  100
100
AcDbLine
 10
0.01686437498139733
 20
500.0118538234493
 11
60.0168643749814
 21
500.0118538234493
  0
LINE
  5
53
100
AcDbEntity
  8
0
  6
ByLayer
 62
  256
370
  100
100
AcDbLine
 10
60.0126898986088
 20
500.0436242172901
 11
60.01268989860881
 21
600.04362421729
  0
LWPOLYLINE
  5
54
100
AcDbEntity
  8
0
  6
ByLayer
 62
  256
370
  100
100
AcDbPolyline
 90
    2
 70
    0
 43
0
 10
60.05403930875887
 20
599.9670043382212
 10
160.0540393087589
 20
599.9670043382212
  0
LINE
  5
55
100
AcDbEntity
  8
0
  6
ByLayer
 62
  256
370
  100
100
AcDbLine
 10
300.2888547527073
 20
600.1563036501401
 11
900.2888547527073
 21
600.1563036501401
  0
LINE
  5
56
100
AcDbEntity
  8
0
  6
ByLayer
 62
  256
370
  100
100
AcDbLine
 10
100.4837291117171
 20
459.3227792437135
 11
100.4837291117171
 21
559.3227792437135
  0
LINE
  5
57
100
AcDbEntity
  8
0
  6
ByLayer
 62
  256
370
  100
100
AcDbLine
 10
40.78912429575811
 20
459.7044549008414
 11
100.7891242957581
 21
459.7044549008414
  0
LINE
  5
58
100
AcDbEntity
  8
0
  6
ByLayer
 62
  256
370
  100
100
AcDbLine
 10
40.78032255890761
 20
459.7306312243574
 11
40.65333367824186
 21
40.91646205156381
  0
LINE
  5
59
100
AcDbEntity
  8
0
  6
ByLayer
 62
  256
370
  100
100
AcDbLine
 10
40.69830242171858
 20
40.89057786623064
 11
190.6983024217186
 21
40.89057786623064
  0
LINE
  5
5A
100
AcDbEntity
  8
0
  6
ByLayer
 62
  256
370
  100
100
AcDbLine
 10
190.662036370616
 20
40.30945818004995
 11
190.662036370616
 21
0.3094581800499512
  0
LINE
  5
5B
100
AcDbEntity
  8
0
  6
ByLayer
 62
  256
370
  100
100
AcDbLine
 10
330.5827500000804
 20
40.64775000000988
 11
330.5827500000804
 21
0.6477500000098786
  0
LINE
  5
5C
100
AcDbEntity
  8
0
  6
ByLayer
 62
  256
370
  100
100
AcDbLine
 10
389.1382500000948
 20
40.36350000000984
 11
389.1382500000948
 21
0.3635000000098429
  0
LINE
  5
5D
100
AcDbEntity
  8
0
  6
ByLayer
 62
  256
370
   70
100
AcDbLine
 10
190.4475000000465
 20
40.93200000001001
 11
330.4475000000465
 21
40.93200000001001
  0
LINE
  5
5E
100
AcDbEntity
  8
0
  6
ByLayer
 62
  256
370
   70
100
AcDbLine
 10
190.7317500000466
 20
20.466000000005
 11
330.7317500000466
 21
20.466000000005
  0
LINE
  5
5F
100
AcDbEntity
  8
0
  6
ByLayer
 62
  256
370
   70
100
AcDbLine
 10
389.2806835560907
 20
40.80388685063842
 11
529.2806835560907
 21
40.80388685063842
  0
LINE
  5
60
100
AcDbEntity
  8
0
  6
ByLayer
 62
  256
370
   70
100
AcDbLine
 10
389.4740669060968
 20
20.69201845032391
 11
529.4740669060968
 21
20.69201845032391
  0
LINE
  5
61
100
AcDbEntity
  8
0
  6
ByLayer
 62
  256
370
  100
100
AcDbLine
 10
529.0000000001347
 20
40.75000000001038
 11
529.0000000001347
 21
0.750000000010381
  0
LINE
  5
62
100
AcDbEntity
  8
0
  6
ByLayer
 62
  256
370
  100
100
AcDbLine
 10
330.1417758754129
 20
40.8376551037552
 11
390.1417758754129
 21
40.8376551037552
  0
LINE
  5
63
100
AcDbEntity
  8
0
  6
ByLayer
 62
  256
370
  100
100
AcDbLine
 10
529.0171403959806
 20
40.73566794976971
 11
589.0171403959806
 21
40.73566794976971
  0
LINE
  5
64
100
AcDbEntity
  8
0
  6
ByLayer
 62
  256
370
   70
100
AcDbLine
 10
589.402631445221
 20
40.72561842180342
 11
729.402631445221
 21
40.72561842180342
  0
LINE
  5
65
100
AcDbEntity
  8
0
  6
ByLayer
 62
  256
370
  100
100
AcDbLine
 10
589.5045656204925
 20
40.64962238410205
 11
589.5045656204925
 21
0.6496223841020523
  0
LINE
  5
66
100
AcDbEntity
  8
0
  6
ByLayer
 62
  256
370
  100
100
AcDbLine
 10
729.9923818935815
 20
40.30945818005099
 11
729.9923818935815
 21
0.3094581800509886
  0
LINE
  5
67
100
AcDbEntity
  8
0
  6
ByLayer
 62
  256
370
   70
100
AcDbLine
 10
589.3344835185761
 20
20.92009854914426
 11
729.3344835185761
 21
20.92009854914426
  0
ARC
  5
68
100
AcDbEntity
  8
0
  6
ByLayer
 62
  256
370
   70
100
AcDbCircle
 10
-341.0678672632723
 20
1583.651485148515
 40
1
100
AcDbArc
 50
209.9999999999973
 51
209.9999999999973
  0
ARC
  5
69
100
AcDbEntity
  8
0
  6
ByLayer
 62
  256
370
   70
100
AcDbCircle
 10
-3085.051147822449
 20
6336.369942196532
 40
1
100
AcDbArc
 50
209.9999999999973
 51
210.0000000000103
  0
ARC
  5
6A
100
AcDbEntity
  8
0
  6
ByLayer
 62
  256
370
   70
100
AcDbCircle
 10
162.0240211810974
 20
564.6949799877389
 40
136.250224566933
100
AcDbArc
 50
359.6441301693782
 51
88.84157524268838
  0
LINE
  5
6B
100
AcDbEntity
  8
0
  6
ByLayer
 62
  256
370
   70
100
AcDbLine
 10
164.7510945630949
 20
700.826439515043
 11
164.7510945630949
 21
565.826439515043
  0
LINE
  5
6C
100
AcDbEntity
  8
sieć
  6
ByLayer
 62
  256
370
   60
100
AcDbLine
 10
853.8131927934976
 20
46.9117692403501
 11
854.0375915381262
 21
553.9990854932033
  0
LINE
  5
6D
100
AcDbEntity
  8
0
  6
ByLayer
 62
  256
370
  100
100
AcDbLine
 10
859.7547629448851
 20
559.7628900575776
 11
859.8019048209657
 21
41.07758805867483
  0
LINE
  5
6E
100
AcDbEntity
  8
0
  6
ByLayer
 62
  256
370
  100
100
AcDbLine
 10
300.1179040963196
 20
559.7839237165769
 11
300.1680000000545
 21
599.6882500001017
  0
LINE
  5
6F
100
AcDbEntity
  8
0
  6
ByLayer
 62
  256
370
  100
100
AcDbLine
 10
100.3738702366958
 20
559.6105045536198
 11
159.9495074031862
 21
559.6808312677094
  0
LINE
  5
70
100
AcDbEntity
  8
0
  6
ByLayer
 62
  256
370
  100
100
AcDbLine
 10
159.9811617683957
 20
559.9340661893848
 11
160.0000000000296
 21
599.5000000001036
  0
LINE
  5
71
100
AcDbEntity
  8
0
  6
ByLayer
 62
  256
370
  100
100
AcDbLine
 10
300.0273320722573
 20
559.9118821232403
 11
859.6932340602011
 21
559.9636733045497
  0
LINE
  5
72
100
AcDbEntity
  8
0
  6
ByLayer
 62
  256
370
  100
100
AcDbLine
 10
730.0020071737271
 20
40.64082452967631
 11
859.859821939138
 21
40.6296397683594
  0
LINE
  5
73
100
AcDbEntity
  8
elektryka
  6
ByLayer
 62
  256
370
   70
100
AcDbLine
 10
856.8074033506552
 20
556.6702274786101
 11
856.8011579515758
 21
44.00328242337528
  0
LINE
  5
74
100
AcDbEntity
  8
sieć
  6
ByLayer
 62
  256
370
   60
100
AcDbLine
 10
853.7920608457463
 20
46.85544045573138
 11
104.7477940234801
 21
46.78991534504718
  0
LINE
  5
75
100
AcDbEntity
  8
sieć
  6
ByLayer
 62
  256
370
   60
100
AcDbLine
 10
104.7477940234801
 20
66.81522890835954
 11
104.7477940234801
 21
46.81522890835954
  0
LINE
  5
76
100
AcDbEntity
  8
elektryka
  6
ByLayer
 62
  256
370
   70
100
AcDbLine
 10
856.8039073257513
 20
556.787939241502
 11
308.6379763218204
 21
556.8168270608318
  0
LINE
  5
77
100
AcDbEntity
  8
sieć
  6
ByLayer
 62
  256
370
   60
100
AcDbLine
 10
854.0466959298637
 20
554.0100209786546
 11
369.1245528902924
 21
553.9534607663043
  0
LINE
  5
78
100
AcDbEntity
  8
elektryka
  6
ByLayer
 62
  256
370
   70
100
AcDbLine
 10
856.8330612256354
 20
44.00194104796846
 11
193.1111688927055
 21
44.08186958619275
  0
LWPOLYLINE
  5
79
100
AcDbEntity
  8
sieć
  6
ByLayer
 62
  256
370
   60
100
AcDbPolyline
 90
    4
 70
    1
 43
0
 10
151.3278160493078
 20
67.02511537616978
 10
77.36741496585003
 20
67.02511537616978
 10
77.36741496585003
 20
141.8072160379695
 10
151.3278160493078
 20
141.8072160379695
  0
LINE
  5
7A
100
AcDbEntity
  8
sieć
  6
ByLayer
 62
  256
370
   70
100
AcDbLine
 10
77.34672214441187
 20
67.31856931082814
 11
151.5929341689994
 21
141.5647813354156
  0
LINE
  5
7B
100
AcDbEntity
  8
sieć
  6
ByLayer
 62
  256
370
   70
100
AcDbLine
 10
77.31856682615924
 20
141.2878729781085
 11
151.5647788507467
 21
67.04166095352103
  0
LINE
  5
7C
100
AcDbEntity
  8
sieć
  6
ByLayer
 62
  256
370
   60
100
AcDbLine
 10
853.6580256984431
 20
441.2330211899744
 11
844.6580256984431
 21
441.2330211899744
  0
LINE
  5
7D
100
AcDbEntity
  8
sieć
  6
ByLayer
 62
  256
370
   60
100
AcDbLine
 10
844.560092928454
 20
434.1412992359316
 11
844.5600929284541
 21
449.1412992359316
  0
LINE
  5
7E
100
AcDbEntity
  8
sieć
  6
ByLayer
 62
  256
370
   60
100
AcDbLine
 10
844.5430547103372
 20
434.1428754039334
 11
835.5430547103372
 21
434.1428754039334
  0
LINE
  5
7F
100
AcDbEntity
  8
sieć
  6
ByLayer
 62
  256
370
   60
100
AcDbLine
 10
844.509587878965
 20
449.1535526496727
 11
835.509587878965
 21
449.1535526496727
  0
LINE
  5
80
100
AcDbEntity
  8
sieć
  6
ByLayer
 62
  256
370
   60
100
AcDbLine
 10
853.6782789806273
 20
424.8773049686904
 11
844.6782789806273
 21
424.8773049686904
  0
LINE
  5
81
100
AcDbEntity
  8
sieć
  6
ByLayer
 62
  256
370
   60
100
AcDbLine
 10
844.5803462106383
 20
417.7855830146477
 11
844.5803462106383
 21
432.7855830146477
  0
LINE
  5
82
100
AcDbEntity
  8
sieć
  6
ByLayer
 62
  256
370
   60
100
AcDbLine
 10
844.5633079925215
 20
417.7871591826495
 11
835.5633079925215
 21
417.7871591826495
  0
LINE
  5
83
100
AcDbEntity
  8
sieć
  6
ByLayer
 62
  256
370
   60
100
AcDbLine
 10
844.5298411611492
 20
432.7978364283888
 11
835.5298411611492
 21
432.7978364283888
  0
LINE
  5
84
100
AcDbEntity
  8
sieć
  6
ByLayer
 62
  256
370
   60
100
AcDbLine
 10
710.8677791166589
 20
553.3657604348841
 11
710.8677791166589
 21
544.3657604348841
  0
LINE
  5
85
100
AcDbEntity
  8
sieć
  6
ByLayer
 62
  256
370
   60
100
AcDbLine
 10
717.9595010707017
 20
544.2678276648951
 11
702.9595010707017
 21
544.2678276648951
  0
LINE
  5
86
100
AcDbEntity
  8
sieć
  6
ByLayer
 62
  256
370
   60
100
AcDbLine
 10
717.9579249026998
 20
544.2507894467783
 11
717.9579249026998
 21
535.2507894467783
  0
LINE
  5
87
100
AcDbEntity
  8
sieć
  6
ByLayer
 62
  256
370
   60
100
AcDbLine
 10
702.9472476569605
 20
544.217322615406
 11
702.9472476569605
 21
535.217322615406
  0
LINE
  5
88
100
AcDbEntity
  8
sieć
  6
ByLayer
 62
  256
370
   60
100
AcDbLine
 10
574.0463084475971
 20
553.7910843705929
 11
574.0463084475971
 21
544.7910843705929
  0
LINE
  5
89
100
AcDbEntity
  8
sieć
  6
ByLayer
 62
  256
370
   60
100
AcDbLine
 10
581.1380304016399
 20
544.6931516006039
 11
566.1380304016399
 21
544.6931516006039
  0
LINE
  5
8A
100
AcDbEntity
  8
sieć
  6
ByLayer
 62
  256
370
   60
100
AcDbLine
 10
581.1364542336379
 20
544.6761133824871
 11
581.1364542336379
 21
535.6761133824871
  0
LINE
  5
8B
100
AcDbEntity
  8
sieć
  6
ByLayer
 62
  256
370
   60
100
AcDbLine
 10
566.1257769878987
 20
544.6426465511148
 11
566.1257769878987
 21
535.6426465511148
  0
LINE
  5
8C
100
AcDbEntity
  8
sieć
  6
ByLayer
 62
  256
370
   60
100
AcDbLine
 10
590.6966792108188
 20
553.8242273249999
 11
590.6966792108188
 21
544.8242273249999
  0
LINE
  5
8D
100
AcDbEntity
  8
sieć
  6
ByLayer
 62
  256
370
   60
100
AcDbLine
 10
597.7884011648615
 20
544.7262945550109
 11
582.7884011648615
 21
544.7262945550109
  0
LINE
  5
8E
100
AcDbEntity
  8
sieć
  6
ByLayer
 62
  256
370
   60
100
AcDbLine
 10
597.7868249968597
 20
544.7092563368941
 11
597.7868249968597
 21
535.7092563368941
  0
LINE
  5
8F
100
AcDbEntity
  8
sieć
  6
ByLayer
 62
  256
370
   60
100
AcDbLine
 10
582.7761477511204
 20
544.6757895055218
 11
582.7761477511204
 21
535.6757895055218
  0
LINE
  5
90
100
AcDbEntity
  8
sieć
  6
ByLayer
 62
  256
370
   60
100
AcDbLine
 10
376.6991544126047
 20
544.957355865358
 11
361.6991544126047
 21
544.957355865358
  0
LINE
  5
91
100
AcDbEntity
  8
sieć
  6
ByLayer
 62
  256
370
   60
100
AcDbLine
 10
376.6975782446029
 20
544.9403176472412
 11
376.6975782446029
 21
535.9403176472412
  0
LINE
  5
92
100
AcDbEntity
  8
sieć
  6
ByLayer
 62
  256
370
   60
100
AcDbLine
 10
361.6869009988636
 20
544.9068508158688
 11
361.6869009988636
 21
535.9068508158688
  0
LINE
  5
93
100
AcDbEntity
  8
sieć
  6
ByLayer
 62
  256
370
   60
100
AcDbLine
 10
386.1283161482963
 20
553.8242273250011
 11
386.1283161482963
 21
544.8242273250011
  0
LINE
  5
94
100
AcDbEntity
  8
sieć
  6
ByLayer
 62
  256
370
   60
100
AcDbLine
 10
393.2200381023391
 20
544.7262945550119
 11
378.2200381023391
 21
544.7262945550119
  0
LINE
  5
95
100
AcDbEntity
  8
sieć
  6
ByLayer
 62
  256
370
   60
100
AcDbLine
 10
393.2184619343372
 20
544.7092563368952
 11
393.2184619343372
 21
535.7092563368952
  0
LINE
  5
96
100
AcDbEntity
  8
sieć
  6
ByLayer
 62
  256
370
   60
100
AcDbLine
 10
378.2077846885979
 20
544.6757895055229
 11
378.2077846885979
 21
535.6757895055229
  0
LINE
  5
97
100
AcDbEntity
  8
sieć
  6
ByLayer
 62
  256
370
   60
100
AcDbLine
 10
369.6098982261553
 20
553.878600395559
 11
369.607432458562
 21
545.055288635347
  0
LINE
  5
98
100
AcDbEntity
  8
sieć
  6
ByLayer
 62
  256
370
   60
100
AcDbLine
 10
843.8742710628898
 20
267.7822192623378
 11
852.8742710628898
 21
267.7822192623378
  0
LINE
  5
99
100
AcDbEntity
  8
sieć
  6
ByLayer
 62
  256
370
   60
100
AcDbLine
 10
843.8197599132861
 20
260.3272791408941
 11
843.8197599132861
 21
275.3272791408941
  0
LINE
  5
9A
100
AcDbEntity
  8
sieć
  6
ByLayer
 62
  256
370
   60
100
AcDbLine
 10
843.9153041430953
 20
260.2862447825062
 11
834.9153041430953
 21
260.2862447825062
  0
LINE
  5
9B
100
AcDbEntity
  8
sieć
  6
ByLayer
 62
  256
370
   60
100
AcDbLine
 10
843.8620353791322
 20
275.3077973001765
 11
834.8620353791322
 21
275.3077973001765
  0
LINE
  5
9C
100
AcDbEntity
  8
sieć
  6
ByLayer
 62
  256
370
   60
100
AcDbLine
 10
843.806327667828
 20
251.4211452152252
 11
852.806327667828
 21
251.4211452152252
  0
LINE
  5
9D
100
AcDbEntity
  8
sieć
  6
ByLayer
 62
  256
370
   60
100
AcDbLine
 10
843.7518165182244
 20
243.9662050937816
 11
843.7518165182245
 21
258.9662050937816
  0
LINE
  5
9E
100
AcDbEntity
  8
sieć
  6
ByLayer
 62
  256
370
   60
100
AcDbLine
 10
843.8473607480336
 20
243.9251707353936
 11
834.8473607480336
 21
243.9251707353936
  0
LINE
  5
9F
100
AcDbEntity
  8
sieć
  6
ByLayer
 62
  256
370
   60
100
AcDbLine
 10
843.7940919840705
 20
258.9467232530639
 11
834.7940919840705
 21
258.9467232530639
  0
LINE
  5
A0
100
AcDbEntity
  8
sieć
  6
ByLayer
 62
  256
370
   60
100
AcDbLine
 10
845.340560052108
 20
134.4274894380236
 11
854.340560052108
 21
134.4274894380236
  0
LINE
  5
A1
100
AcDbEntity
  8
sieć
  6
ByLayer
 62
  256
370
   60
100
AcDbLine
 10
845.2860489025044
 20
126.9725493165799
 11
845.2860489025044
 21
141.9725493165799
  0
LINE
  5
A2
100
AcDbEntity
  8
sieć
  6
ByLayer
 62
  256
370
   60
100
AcDbLine
 10
845.3815931323136
 20
126.9315149581919
 11
836.3815931323136
 21
126.9315149581919
  0
LINE
  5
A3
100
AcDbEntity
  8
sieć
  6
ByLayer
 62
  256
370
   60
100
AcDbLine
 10
845.3283243683504
 20
141.9530674758622
 11
836.3283243683504
 21
141.9530674758622
  0
LINE
  5
A4
100
AcDbEntity
  8
sieć
  6
ByLayer
 62
  256
370
   60
100
AcDbLine
 10
657.2305982849648
 20
47.24594448322028
 11
657.2305982849648
 21
56.24594448322028
  0
LINE
  5
A5
100
AcDbEntity
  8
sieć
  6
ByLayer
 62
  256
370
   60
100
AcDbLine
 10
650.138876330922
 20
56.34387725320937
 11
665.138876330922
 21
56.34387725320937
  0
LINE
  5
A6
100
AcDbEntity
  8
sieć
  6
ByLayer
 62
  256
370
   60
100
AcDbLine
 10
650.1404524989238
 20
56.36091547132611
 11
650.1404524989238
 21
65.36091547132611
  0
LINE
  5
A7
100
AcDbEntity
  8
sieć
  6
ByLayer
 62
  256
370
   60
100
AcDbLine
 10
665.1511297446631
 20
56.39438230269849
 11
665.1511297446631
 21
65.39438230269843
  0
LINE
  5
A8
100
AcDbEntity
  8
sieć
  6
ByLayer
 62
  256
370
   60
100
AcDbLine
 10
673.8286670619698
 20
47.24772404733477
 11
673.8286670619698
 21
56.24772404733477
  0
LINE
  5
A9
100
AcDbEntity
  8
sieć
  6
ByLayer
 62
  256
370
   60
100
AcDbLine
 10
666.7369451079269
 20
56.34565681732386
 11
681.7369451079269
 21
56.34565681732386
  0
LINE
  5
AA
100
AcDbEntity
  8
sieć
  6
ByLayer
 62
  256
370
   60
100
AcDbLine
 10
666.7385212759289
 20
56.36269503544059
 11
666.7385212759289
 21
65.36269503544059
  0
LINE
  5
AB
100
AcDbEntity
  8
sieć
  6
ByLayer
 62
  256
370
   60
100
AcDbLine
 10
681.7491985216681
 20
56.39616186681292
 11
681.7491985216681
 21
65.39616186681292
  0
LINE
  5
AC
100
AcDbEntity
  8
sieć
  6
ByLayer
 62
  256
370
   60
100
AcDbLine
 10
460.1681995350244
 20
46.60365744381545
 11
460.1681995350244
 21
55.60365744381545
  0
LINE
  5
AD
100
AcDbEntity
  8
sieć
  6
ByLayer
 62
  256
370
   60
100
AcDbLine
 10
453.0764775809815
 20
55.70159021380454
 11
468.0764775809815
 21
55.70159021380454
  0
LINE
  5
AE
100
AcDbEntity
  8
sieć
  6
ByLayer
 62
  256
370
   60
100
AcDbLine
 10
453.0780537489834
 20
55.71862843192133
 11
453.0780537489834
 21
64.71862843192133
  0
LINE
  5
AF
100
AcDbEntity
  8
sieć
  6
ByLayer
 62
  256
370
   60
100
AcDbLine
 10
468.0887309947227
 20
55.75209526329365
 11
468.0887309947227
 21
64.75209526329365
  0
LINE
  5
B0
100
AcDbEntity
  8
sieć
  6
ByLayer
 62
  256
370
   60
100
AcDbLine
 10
476.7662683120294
 20
46.60543700792994
 11
476.7662683120294
 21
55.60543700792994
  0
LINE
  5
B1
100
AcDbEntity
  8
sieć
  6
ByLayer
 62
  256
370
   60
100
AcDbLine
 10
469.6745463579866
 20
55.70336977791902
 11
484.6745463579866
 21
55.70336977791902
  0
LINE
  5
B2
100
AcDbEntity
  8
sieć
  6
ByLayer
 62
  256
370
   60
100
AcDbLine
 10
469.6761225259884
 20
55.72040799603576
 11
469.6761225259884
 21
64.72040799603582
  0
LINE
  5
B3
100
AcDbEntity
  8
sieć
  6
ByLayer
 62
  256
370
   60
100
AcDbLine
 10
484.6867997717277
 20
55.75387482740814
 11
484.6867997717277
 21
64.75387482740814
  0
LINE
  5
B4
100
AcDbEntity
  8
sieć
  6
ByLayer
 62
  256
370
   60
100
AcDbLine
 10
261.1472197678296
 20
47.08912227712921
 11
261.1472197678296
 21
56.08912227712921
  0
LINE
  5
B5
100
AcDbEntity
  8
sieć
  6
ByLayer
 62
  256
370
   60
100
AcDbLine
 10
254.0554978137869
 20
56.18705504711829
 11
269.0554978137869
 21
56.18705504711829
  0
LINE
  5
B6
100
AcDbEntity
  8
sieć
  6
ByLayer
 62
  256
370
   60
100
AcDbLine
 10
254.0570739817886
 20
56.20409326523509
 11
254.0570739817886
 21
65.20409326523509
  0
LINE
  5
B7
100
AcDbEntity
  8
sieć
  6
ByLayer
 62
  256
370
   60
100
AcDbLine
 10
269.0677512275279
 20
56.23756009660741
 11
269.0677512275279
 21
65.23756009660735
  0
LINE
  5
B8
100
AcDbEntity
  8
sieć
  6
ByLayer
 62
  256
370
   60
100
AcDbLine
 10
277.7452885448346
 20
47.09090184124369
 11
277.7452885448346
 21
56.09090184124369
  0
LINE
  5
B9
100
AcDbEntity
  8
sieć
  6
ByLayer
 62
  256
370
   60
100
AcDbLine
 10
270.6535665907919
 20
56.18883461123283
 11
285.6535665907919
 21
56.18883461123283
  0
LINE
  5
BA
100
AcDbEntity
  8
sieć
  6
ByLayer
 62
  256
370
   60
100
AcDbLine
 10
270.6551427587937
 20
56.20587282934957
 11
270.6551427587937
 21
65.20587282934957
  0
LINE
  5
BB
100
AcDbEntity
  8
sieć
  6
ByLayer
 62
  256
370
   60
100
AcDbLine
 10
285.665820004533
 20
56.2393396607219
 11
285.665820004533
 21
65.2393396607219
  0
LINE
  5
BC
100
AcDbEntity
  8
elektryka
  6
ByLayer
 62
  256
370
   70
100
AcDbLine
 10
309.3495807291522
 20
556.8626897002512
 11
309.3595610336454
 21
547.1183707139119
  0
LINE
  5
BD
100
AcDbEntity
  8
elektryka
  6
ByLayer
 62
  256
370
   70
100
AcDbLine
 10
316.49986376906
 20
547.0976905746388
 11
301.49986376906
 21
547.0976905746388
  0
ARC
  5
BE
100
AcDbEntity
  8
elektryka
  6
ByLayer
 62
  256
370
   70
100
AcDbCircle
 10
309.3025508369429
 20
538.8032110896855
 40
8.128520141680212
100
AcDbArc
 50
356.2575913668711
 51
183.4102601168665
  0
LINE
  5
BF
100
AcDbEntity
  8
elektryka
  6
ByLayer
 62
  256
370
   70
100
AcDbLine
 10
327.1497753950276
 20
557.010759534595
 11
327.1597556995207
 21
547.2664405482558
  0
LINE
  5
C0
100
AcDbEntity
  8
elektryka
  6
ByLayer
 62
  256
370
   70
100
AcDbLine
 10
334.3000584349355
 20
547.2457604089827
 11
319.3000584349355
 21
547.2457604089827
  0
ARC
  5
C1
100
AcDbEntity
  8
elektryka
  6
ByLayer
 62
  256
370
   70
100
AcDbCircle
 10
327.1027455028183
 20
538.9512809240294
 40
8.128520141680212
100
AcDbArc
 50
356.2575913668711
 51
183.4102601168665
  0
LINE
  5
C2
100
AcDbEntity
  8
elektryka
  6
ByLayer
 62
  256
370
   70
100
AcDbLine
 10
429.3373630957331
 20
556.4321977652768
 11
429.3473434002262
 21
546.6878787789376
  0
LINE
  5
C3
100
AcDbEntity
  8
elektryka
  6
ByLayer
 62
  256
370
   70
100
AcDbLine
 10
436.4876461356409
 20
546.6671986396645
 11
421.4876461356409
 21
546.6671986396645
  0
ARC
  5
C4
100
AcDbEntity
  8
elektryka
  6
ByLayer
 62
  256
370
   70
100
AcDbCircle
 10
429.2903332035238
 20
538.3727191547113
 40
8.128520141680212
100
AcDbArc
 50
356.2575913668711
 51
183.4102601168665
  0
LINE
  5
C5
100
AcDbEntity
  8
elektryka
  6
ByLayer
 62
  256
370
   70
100
AcDbLine
 10
447.1375577616085
 20
556.5802675996207
 11
447.1475380661016
 21
546.8359486132814
  0
LINE
  5
C6
100
AcDbEntity
  8
elektryka
  6
ByLayer
 62
  256
370
   70
100
AcDbLine
 10
454.2878408015164
 20
546.8152684740083
 11
439.2878408015163
 21
546.8152684740083
  0
ARC
  5
C7
100
AcDbEntity
  8
elektryka
  6
ByLayer
 62
  256
370
   70
100
AcDbCircle
 10
447.0905278693992
 20
538.5207889890552
 40
8.128520141680212
100
AcDbArc
 50
356.2575913668711
 51
183.4102601168665
  0
LINE
  5
C8
100
AcDbEntity
  8
elektryka
  6
ByLayer
 62
  256
370
   70
100
AcDbLine
 10
500.431567269148
 20
556.8198695447153
 11
500.4415475736411
 21
547.0755505583761
  0
LINE
  5
C9
100
AcDbEntity
  8
elektryka
  6
ByLayer
 62
  256
370
   70
100
AcDbLine
 10
507.5818503090559
 20
547.0548704191031
 11
492.5818503090559
 21
547.0548704191031
  0
ARC
  5
CA
100
AcDbEntity
  8
elektryka
  6
ByLayer
 62
  256
370
   70
100
AcDbCircle
 10
500.3845373769387
 20
538.7603909341497
 40
8.128520141680212
100
AcDbArc
 50
356.2575913668711
 51
183.4102601168665
  0
LINE
  5
CB
100
AcDbEntity
  8
elektryka
  6
ByLayer
 62
  256
370
   70
100
AcDbLine
 10
518.2317619350234
 20
556.9679393790592
 11
518.2417422395166
 21
547.2236203927199
  0
LINE
  5
CC
100
AcDbEntity
  8
elektryka
  6
ByLayer
 62
  256
370
   70
100
AcDbLine
 10
525.3820449749313
 20
547.2029402534469
 11
510.3820449749313
 21
547.2029402534469
  0
ARC
  5
CD
100
AcDbEntity
  8
elektryka
  6
ByLayer
 62
  256
370
   70
100
AcDbCircle
 10
518.1847320428142
 20
538.9084607684936
 40
8.128520141680212
100
AcDbArc
 50
356.2575913668711
 51
183.4102601168665
  0
LINE
  5
CE
100
AcDbEntity
  8
elektryka
  6
ByLayer
 62
  256
370
   70
100
AcDbLine
 10
647.7656827973071
 20
546.9849844122168
 11
632.7656827973071
 21
546.9849844122168
  0
ARC
  5
CF
100
AcDbEntity
  8
elektryka
  6
ByLayer
 62
  256
370
   70
100
AcDbCircle
 10
640.56836986519
 20
538.6905049272635
 40
8.128520141680212
100
AcDbArc
 50
356.2575913668711
 51
183.4102601168665
  0
LINE
  5
D0
100
AcDbEntity
  8
elektryka
  6
ByLayer
 62
  256
370
   70
100
AcDbLine
 10
640.6074823307939
 20
556.9650166303686
 11
640.6253800618924
 21
547.0056645514899
  0
LINE
  5
D1
100
AcDbEntity
  8
elektryka
  6
ByLayer
 62
  256
370
   70
100
AcDbLine
 10
663.5580515403816
 20
556.8267601893469
 11
663.5680318448747
 21
547.0824412030076
  0
LINE
  5
D2
100
AcDbEntity
  8
elektryka
  6
ByLayer
 62
  256
370
   70
100
AcDbLine
 10
670.7083345802894
 20
547.0617610637346
 11
655.7083345802894
 21
547.0617610637346
  0
ARC
  5
D3
100
AcDbEntity
  8
elektryka
  6
ByLayer
 62
  256
370
   70
100
AcDbCircle
 10
663.5110216481723
 20
538.7672815787814
 40
8.128520141680212
100
AcDbArc
 50
356.2575913668711
 51
183.4102601168665
  0
LINE
  5
D4
100
AcDbEntity
  8
elektryka
  6
ByLayer
 62
  256
370
   70
100
AcDbLine
 10
764.005051168028
 20
547.0562503169992
 11
749.005051168028
 21
547.0562503169992
  0
ARC
  5
D5
100
AcDbEntity
  8
elektryka
  6
ByLayer
 62
  256
370
   70
100
AcDbCircle
 10
756.8077382359108
 20
538.761770832046
 40
8.128520141680212
100
AcDbArc
 50
356.2575913668711
 51
183.4102601168665
  0
LINE
  5
D6
100
AcDbEntity
  8
elektryka
  6
ByLayer
 62
  256
370
   70
100
AcDbLine
 10
756.8528204546081
 20
556.9930972584183
 11
756.8647484326133
 21
547.0769304562723
  0
LINE
  5
D7
100
AcDbEntity
  8
elektryka
  6
ByLayer
 62
  256
370
   70
100
AcDbLine
 10
776.1951847403302
 20
556.957868176402
 11
776.2051650448233
 21
547.2135491900627
  0
LINE
  5
D8
100
AcDbEntity
  8
elektryka
  6
ByLayer
 62
  256
370
   70
100
AcDbLine
 10
783.345467780238
 20
547.1928690507897
 11
768.345467780238
 21
547.1928690507897
  0
ARC
  5
D9
100
AcDbEntity
  8
elektryka
  6
ByLayer
 62
  256
370
   70
100
AcDbCircle
 10
776.148154848121
 20
538.8983895658364
 40
8.128520141680212
100
AcDbArc
 50
356.2575913668711
 51
183.4102601168665
  0
LINE
  5
DA
100
AcDbEntity
  8
elektryka
  6
ByLayer
 62
  256
370
   70
100
AcDbLine
 10
846.6759753919265
 20
498.1274776400069
 11
846.6759753919265
 21
513.1274776400069
  0
ARC
  5
DB
100
AcDbEntity
  8
elektryka
  6
ByLayer
 62
  256
370
   70
100
AcDbCircle
 10
838.3814959069732
 20
505.3247905721241
 40
8.128520141680212
100
AcDbArc
 50
266.2575913668711
 51
93.41026011686655
  0
LINE
  5
DC
100
AcDbEntity
  8
elektryka
  6
ByLayer
 62
  256
370
   70
100
AcDbLine
 10
856.6128223333455
 20
505.2797083534267
 11
846.6966555311996
 21
505.2677803754217
  0
LINE
  5
DD
100
AcDbEntity
  8
elektryka
  6
ByLayer
 62
  256
370
   70
100
AcDbLine
 10
846.8073337468581
 20
480.3940997242327
 11
846.8073337468581
 21
495.3940997242327
  0
ARC
  5
DE
100
AcDbEntity
  8
elektryka
  6
ByLayer
 62
  256
370
   70
100
AcDbCircle
 10
838.512854261905
 20
487.5914126563499
 40
8.128520141680212
100
AcDbArc
 50
266.2575913668711
 51
93.41026011686655
  0
LINE
  5
DF
100
AcDbEntity
  8
elektryka
  6
ByLayer
 62
  256
370
   70
100
AcDbLine
 10
856.7441806882773
 20
487.5463304376524
 11
846.8280138861312
 21
487.5344024596474
  0
LINE
  5
E0
100
AcDbEntity
  8
elektryka
  6
ByLayer
 62
  256
370
   70
100
AcDbLine
 10
847.0403957249438
 20
376.3072531994436
 11
847.0403957249438
 21
391.3072531994436
  0
ARC
  5
E1
100
AcDbEntity
  8
elektryka
  6
ByLayer
 62
  256
370
   70
100
AcDbCircle
 10
838.7459162399906
 20
383.5045661315607
 40
8.128520141680212
100
AcDbArc
 50
266.2575913668711
 51
93.41026011686655
  0
LINE
  5
E2
100
AcDbEntity
  8
elektryka
  6
ByLayer
 62
  256
370
   70
100
AcDbLine
 10
856.9772426663629
 20
383.4594839128633
 11
847.0610758642168
 21
383.4475559348583
  0
LINE
  5
E3
100
AcDbEntity
  8
elektryka
  6
ByLayer
 62
  256
370
   70
100
AcDbLine
 10
847.1717540798755
 20
358.5738752836693
 11
847.1717540798755
 21
373.5738752836693
  0
ARC
  5
E4
100
AcDbEntity
  8
elektryka
  6
ByLayer
 62
  256
370
   70
100
AcDbCircle
 10
838.8772745949223
 20
365.7711882157864
 40
8.128520141680212
100
AcDbArc
 50
266.2575913668711
 51
93.41026011686655
  0
LINE
  5
E5
100
AcDbEntity
  8
elektryka
  6
ByLayer
 62
  256
370
   70
100
AcDbLine
 10
857.1086010212947
 20
365.7261059970891
 11
847.1924342191486
 21
365.714178019084
  0
LINE
  5
E6
100
AcDbEntity
  8
elektryka
  6
ByLayer
 62
  256
370
   70
100
AcDbLine
 10
846.8532327520535
 20
339.5412076036168
 11
846.8532327520535
 21
354.5412076036168
  0
ARC
  5
E7
100
AcDbEntity
  8
elektryka
  6
ByLayer
 62
  256
370
   70
100
AcDbCircle
 10
838.5587532671003
 20
346.7385205357339
 40
8.128520141680212
100
AcDbArc
 50
266.2575913668711
 51
93.41026011686655
  0
LINE
  5
E8
100
AcDbEntity
  8
elektryka
  6
ByLayer
 62
  256
370
   70
100
AcDbLine
 10
856.7900796934726
 20
346.6934383170365
 11
846.8739128913265
 21
346.6815103390315
  0
LINE
  5
E9
100
AcDbEntity
  8
elektryka
  6
ByLayer
 62
  256
370
   70
100
AcDbLine
 10
846.9845911069852
 20
321.8078296878425
 11
846.9845911069852
 21
336.8078296878425
  0
ARC
  5
EA
100
AcDbEntity
  8
elektryka
  6
ByLayer
 62
  256
370
   70
100
AcDbCircle
 10
838.690111622032
 20
329.0051426199597
 40
8.128520141680212
100
AcDbArc
 50
266.2575913668711
 51
93.41026011686655
  0
LINE
  5
EB
100
AcDbEntity
  8
elektryka
  6
ByLayer
 62
  256
370
   70
100
AcDbLine
 10
856.9214380484044
 20
328.9600604012623
 11
847.0052712462583
 21
328.9481324232572
  0
LINE
  5
EC
100
AcDbEntity
  8
elektryka
  6
ByLayer
 62
  256
370
   70
100
AcDbLine
 10
846.6510469784436
 20
198.0115358114798
 11
846.6510469784436
 21
213.0115358114798
  0
ARC
  5
ED
100
AcDbEntity
  8
elektryka
  6
ByLayer
 62
  256
370
   70
100
AcDbCircle
 10
838.3565674934903
 20
205.208848743597
 40
8.128520141680212
100
AcDbArc
 50
266.2575913668711
 51
93.41026011686655
  0
LINE
  5
EE
100
AcDbEntity
  8
elektryka
  6
ByLayer
 62
  256
370
   70
100
AcDbLine
 10
856.5878939198626
 20
205.1637665248996
 11
846.6717271177166
 21
205.1518385468946
  0
LINE
  5
EF
100
AcDbEntity
  8
elektryka
  6
ByLayer
 62
  256
370
   70
100
AcDbLine
 10
846.7824053333752
 20
180.2781578957056
 11
846.7824053333752
 21
195.2781578957056
  0
ARC
  5
F0
100
AcDbEntity
  8
elektryka
  6
ByLayer
 62
  256
370
   70
100
AcDbCircle
 10
838.487925848422
 20
187.4754708278227
 40
8.128520141680212
100
AcDbArc
 50
266.2575913668711
 51
93.41026011686655
  0
LINE
  5
F1
100
AcDbEntity
  8
elektryka
  6
ByLayer
 62
  256
370
   70
100
AcDbLine
 10
856.7192522747944
 20
187.4303886091253
 11
846.8030854726483
 21
187.4184606311203
  0
LINE
  5
F2
100
AcDbEntity
  8
elektryka
  6
ByLayer
 62
  256
370
   70
100
AcDbLine
 10
846.3784097641186
 20
90.70532740750669
 11
846.3784097641186
 21
105.7053274075067
  0
ARC
  5
F3
100
AcDbEntity
  8
elektryka
  6
ByLayer
 62
  256
370
   70
100
AcDbCircle
 10
838.0839302791653
 20
97.90264033962382
 40
8.128520141680212
100
AcDbArc
 50
266.2575913668711
 51
93.41026011686655
  0
LINE
  5
F4
100
AcDbEntity
  8
elektryka
  6
ByLayer
 62
  256
370
   70
100
AcDbLine
 10
856.3152567055376
 20
97.85755812092644
 11
846.3990899033917
 21
97.84563014292139
  0
LINE
  5
F5
100
AcDbEntity
  8
elektryka
  6
ByLayer
 62
  256
370
   70
100
AcDbLine
 10
846.5097681190502
 20
72.97194949173245
 11
846.5097681190502
 21
87.97194949173245
  0
ARC
  5
F6
100
AcDbEntity
  8
elektryka
  6
ByLayer
 62
  256
370
   70
100
AcDbCircle
 10
838.2152886340971
 20
80.16926242384956
 40
8.128520141680212
100
AcDbArc
 50
266.2575913668711
 51
93.41026011686655
  0
LINE
  5
F7
100
AcDbEntity
  8
elektryka
  6
ByLayer
 62
  256
370
   70
100
AcDbLine
 10
856.4466150604694
 20
80.12418020515219
 11
846.5304482583233
 21
80.11225222714715
  0
LINE
  5
F8
100
AcDbEntity
  8
elektryka
  6
ByLayer
 62
  256
370
   70
100
AcDbLine
 10
743.4177049999836
 20
53.8125279125146
 11
758.4177049999836
 21
53.8125279125146
  0
ARC
  5
F9
100
AcDbEntity
  8
elektryka
  6
ByLayer
 62
  256
370
   70
100
AcDbCircle
 10
750.6150179321007
 20
62.10700739746785
 40
8.128520141680212
100
AcDbArc
 50
176.2575913668711
 51
3.410260116866557
  0
LINE
  5
FA
100
AcDbEntity
  8
elektryka
  6
ByLayer
 62
  256
370
   70
100
AcDbLine
 10
750.5699357134033
 20
43.8756809710955
 11
750.5580077353983
 21
53.79184777324155
  0
LINE
  5
FB
100
AcDbEntity
  8
elektryka
  6
ByLayer
 62
  256
370
   70
100
AcDbLine
 10
724.3825722331557
 20
53.99126155351768
 11
739.3825722331557
 21
53.99126155351768
  0
ARC
  5
FC
100
AcDbEntity
  8
elektryka
  6
ByLayer
 62
  256
370
   70
100
AcDbCircle
 10
731.5798851652728
 20
62.28574103847092
 40
8.128520141680212
100
AcDbArc
 50
176.2575913668711
 51
3.410260116866557
  0
LINE
  5
FD
100
AcDbEntity
  8
elektryka
  6
ByLayer
 62
  256
370
   70
100
AcDbLine
 10
731.5113390294401
 20
43.82116226008281
 11
731.4994110514351
 21
53.73732906222887
  0
LINE
  5
FE
100
AcDbEntity
  8
elektryka
  6
ByLayer
 62
  256
370
   70
100
AcDbLine
 10
575.3097588073598
 20
54.55200568169041
 11
590.3097588073598
 21
54.55200568169041
  0
ARC
  5
FF
100
AcDbEntity
  8
elektryka
  6
ByLayer
 62
  256
370
   70
100
AcDbCircle
 10
582.5070717394768
 20
62.84648516664365
 40
8.128520141680212
100
AcDbArc
 50
176.2575913668711
 51
3.410260116866557
  0
LINE
  5
100
100
AcDbEntity
  8
elektryka
  6
ByLayer
 62
  256
370
   70
100
AcDbLine
 10
582.4619895207795
 20
44.6151587402713
 11
582.4500615427745
 21
54.53132554241736
  0
LINE
  5
101
100
AcDbEntity
  8
elektryka
  6
ByLayer
 62
  256
370
   70
100
AcDbLine
 10
556.2746260405319
 20
54.73073932269349
 11
571.2746260405319
 21
54.73073932269349
  0
ARC
  5
102
100
AcDbEntity
  8
elektryka
  6
ByLayer
 62
  256
370
   70
100
AcDbCircle
 10
563.4719389726489
 20
63.02521880764673
 40
8.128520141680212
100
AcDbArc
 50
176.2575913668711
 51
3.410260116866557
  0
LINE
  5
103
100
AcDbEntity
  8
elektryka
  6
ByLayer
 62
  256
370
   70
100
AcDbLine
 10
563.4033928368164
 20
44.56064002925861
 11
563.3914648588113
 21
54.47680683140467
  0
LINE
  5
104
100
AcDbEntity
  8
elektryka
  6
ByLayer
 62
  256
370
   70
100
AcDbLine
 10
532.7151192521652
 20
54.61965636481021
 11
547.7151192521652
 21
54.61965636481021
  0
ARC
  5
105
100
AcDbEntity
  8
elektryka
  6
ByLayer
 62
  256
370
   70
100
AcDbCircle
 10
539.9124321842824
 20
62.91413584976345
 40
8.128520141680212
100
AcDbArc
 50
176.2575913668711
 51
3.410260116866557
  0
LINE
  5
106
100
AcDbEntity
  8
elektryka
  6
ByLayer
 62
  256
370
   70
100
AcDbLine
 10
539.867349965585
 20
44.6828094233911
 11
539.8554219875799
 21
54.59897622553716
  0
LINE
  5
107
100
AcDbEntity
  8
elektryka
  6
ByLayer
 62
  256
370
   70
100
AcDbLine
 10
513.6799864853373
 20
54.79839000581329
 11
528.6799864853373
 21
54.79839000581329
  0
ARC
  5
108
100
AcDbEntity
  8
elektryka
  6
ByLayer
 62
  256
370
   70
100
AcDbCircle
 10
520.8772994174544
 20
63.09286949076652
 40
8.128520141680212
100
AcDbArc
 50
176.2575913668711
 51
3.410260116866557
  0
LINE
  5
109
100
AcDbEntity
  8
elektryka
  6
ByLayer
 62
  256
370
   70
100
AcDbLine
 10
520.8087532816219
 20
44.62829071237842
 11
520.7968253036169
 21
54.54445751452447
  0
LINE
  5
10A
100
AcDbEntity
  8
elektryka
  6
ByLayer
 62
  256
370
   70
100
AcDbLine
 10
386.7429276675392
 20
54.05902050223992
 11
401.7429276675392
 21
54.05902050223992
  0
ARC
  5
10B
100
AcDbEntity
  8
elektryka
  6
ByLayer
 62
  256
370
   70
100
AcDbCircle
 10
393.9402405996562
 20
62.35349998719316
 40
8.128520141680212
100
AcDbArc
 50
176.2575913668711
 51
3.410260116866557
  0
LINE
  5
10C
100
AcDbEntity
  8
elektryka
  6
ByLayer
 62
  256
370
   70
100
AcDbLine
 10
393.8951583809589
 20
44.1221735608208
 11
393.8832304029539
 21
54.03834036296686
  0
LINE
  5
10D
100
AcDbEntity
  8
elektryka
  6
ByLayer
 62
  256
370
   70
100
AcDbLine
 10
367.7077949007112
 20
54.237754143243
 11
382.7077949007112
 21
54.237754143243
  0
ARC
  5
10E
100
AcDbEntity
  8
elektryka
  6
ByLayer
 62
  256
370
   70
100
AcDbCircle
 10
374.9051078328284
 20
62.53223362819624
 40
8.128520141680212
100
AcDbArc
 50
176.2575913668711
 51
3.410260116866557
  0
LINE
  5
10F
100
AcDbEntity
  8
elektryka
  6
ByLayer
 62
  256
370
   70
100
AcDbLine
 10
374.8365616969958
 20
44.06765484980812
 11
374.8246337189907
 21
53.98382165195419
  0
LINE
  5
110
100
AcDbEntity
  8
elektryka
  6
ByLayer
 62
  256
370
   70
100
AcDbLine
 10
347.3182186023535
 20
54.16063057715019
 11
362.3182186023535
 21
54.16063057715019
  0
ARC
  5
111
100
AcDbEntity
  8
elektryka
  6
ByLayer
 62
  256
370
   70
100
AcDbCircle
 10
354.5155315344706
 20
62.45511006210344
 40
8.128520141680212
100
AcDbArc
 50
176.2575913668711
 51
3.410260116866557
  0
LINE
  5
112
100
AcDbEntity
  8
elektryka
  6
ByLayer
 62
  256
370
   70
100
AcDbLine
 10
354.4704493157732
 20
44.22378363573107
 11
354.4585213377682
 21
54.13995043787714
  0
LINE
  5
113
100
AcDbEntity
  8
elektryka
  6
ByLayer
 62
  256
370
   70
100
AcDbLine
 10
328.2830858355255
 20
54.33936421815327
 11
343.2830858355255
 21
54.33936421815327
  0
ARC
  5
114
100
AcDbEntity
  8
elektryka
  6
ByLayer
 62
  256
370
   70
100
AcDbCircle
 10
335.4803987676426
 20
62.63384370310652
 40
8.128520141680212
100
AcDbArc
 50
176.2575913668711
 51
3.410260116866557
  0
LINE
  5
115
100
AcDbEntity
  8
elektryka
  6
ByLayer
 62
  256
370
   70
100
AcDbLine
 10
335.4118526318101
 20
44.1692649247184
 11
335.399924653805
 21
54.08543172686446
  0
LINE
  5
116
100
AcDbEntity
  8
elektryka
  6
ByLayer
 62
  256
370
   70
100
AcDbLine
 10
206.0638593989268
 20
54.05902050223995
 11
221.0638593989268
 21
54.05902050223995
  0
ARC
  5
117
100
AcDbEntity
  8
elektryka
  6
ByLayer
 62
  256
370
   70
100
AcDbCircle
 10
213.2611723310439
 20
62.35349998719319
 40
8.128520141680212
100
AcDbArc
 50
176.2575913668711
 51
3.410260116866557
  0
LINE
  5
118
100
AcDbEntity
  8
elektryka
  6
ByLayer
 62
  256
370
   70
100
AcDbLine
 10
213.2160901123465
 20
44.12217356082084
 11
213.2041621343415
 21
54.0383403629669
  0
LINE
  5
119
100
AcDbEntity
  8
elektryka
  6
ByLayer
 62
  256
370
   70
100
AcDbLine
 10
187.0287266320989
 20
54.23775414324303
 11
202.0287266320989
 21
54.23775414324303
  0
ARC
  5
11A
100
AcDbEntity
  8
elektryka
  6
ByLayer
 62
  256
370
   70
100
AcDbCircle
 10
194.226039564216
 20
62.53223362819627
 40
8.128520141680212
100
AcDbArc
 50
176.2575913668711
 51
3.410260116866557
  0
LINE
  5
11B
100
AcDbEntity
  8
elektryka
  6
ByLayer
 62
  256
370
   70
100
AcDbLine
 10
194.1574934283834
 20
44.06765484980816
 11
194.1455654503783
 21
53.98382165195422
  0
ENDSEC
  0
SECTION
  2
OBJECTS
  0
DICTIONARY
  5
C
330
0
100
AcDbDictionary
281
    1
  3
ACAD_GROUP
350
D
  0
DICTIONARY
  5
D
330
C
100
AcDbDictionary
281
    1
  0
PLOTSETTINGS
  5
11C
100
AcDbPlotSettings
  6
1x1
 40
0
 41
0
 42
0
 43
0
  0
ENDSEC
  0
EOF
